<svg width="44" height="44" viewBox="0 0 44 44" fill="none" xmlns="http://www.w3.org/2000/svg">
<path d="M33.8228 4.7589L33.667 13.1987C33.6447 14.3566 34.3798 15.8932 35.3151 16.5835L40.8377 20.77C44.3783 23.4422 43.7994 26.7157 39.5683 28.0518L32.3756 30.3009C31.1731 30.6795 29.9038 31.9933 29.592 33.2181L27.8774 39.7651C26.519 44.9314 23.134 45.4435 20.3281 40.9008L16.4089 34.5542C15.6964 33.3963 14.0039 32.5278 12.6678 32.5946L5.23024 32.9732C-0.0919351 33.2404 -1.60622 30.1673 1.86767 26.1145L6.27679 20.9927C7.10073 20.0351 7.47927 18.2537 7.10071 17.0511L4.8517 9.85839C3.53786 5.62737 5.8983 3.2892 10.107 4.66984L16.6763 6.82989C17.7897 7.18619 19.4599 6.94121 20.3951 6.25089L27.2539 1.30727C30.9504 -1.36495 33.9119 0.193848 33.8228 4.7589Z" fill="#B9B4C7"/>
<path opacity="0.4" d="M43.0646 41.1233L36.3172 34.3759C35.6714 33.7302 34.6025 33.7302 33.9568 34.3759C33.311 35.0217 33.311 36.0906 33.9568 36.7364L40.7041 43.4838C41.0381 43.8178 41.4612 43.9737 41.8843 43.9737C42.3074 43.9737 42.7306 43.8178 43.0646 43.4838C43.7104 42.838 43.7104 41.7691 43.0646 41.1233Z" fill="#B9B4C7"/>
</svg>
