<svg width="46" height="38" viewBox="0 0 46 38" fill="none" xmlns="http://www.w3.org/2000/svg">
<mask id="path-1-inside-1_43_350" fill="white">
<path d="M30.5846 37.0874H30.3004C20.5941 37.0874 15.9158 33.9276 15.1069 26.8496C15.0195 26.1093 15.6753 25.4412 16.5935 25.3689C17.4898 25.2967 18.2987 25.8565 18.3861 26.5968C19.0201 32.2664 22.2555 34.379 30.3223 34.379H30.6065C39.504 34.379 42.652 31.7789 42.652 24.43V12.6574C42.652 5.30851 39.504 2.70842 30.6065 2.70842H30.3223C22.2118 2.70842 18.9764 4.85711 18.3861 10.6351C18.2768 11.3754 17.5335 11.9351 16.5935 11.8629C15.6753 11.8087 15.0195 11.1407 15.0851 10.4004C15.8284 3.214 20.5285 0 30.3004 0H30.5846C41.3185 0 45.9093 3.79179 45.9093 12.6574V24.43C45.9093 33.2956 41.3185 37.0874 30.5846 37.0874Z"/>
</mask>
<path d="M30.5846 37.0874H30.3004C20.5941 37.0874 15.9158 33.9276 15.1069 26.8496C15.0195 26.1093 15.6753 25.4412 16.5935 25.3689C17.4898 25.2967 18.2987 25.8565 18.3861 26.5968C19.0201 32.2664 22.2555 34.379 30.3223 34.379H30.6065C39.504 34.379 42.652 31.7789 42.652 24.43V12.6574C42.652 5.30851 39.504 2.70842 30.6065 2.70842H30.3223C22.2118 2.70842 18.9764 4.85711 18.3861 10.6351C18.2768 11.3754 17.5335 11.9351 16.5935 11.8629C15.6753 11.8087 15.0195 11.1407 15.0851 10.4004C15.8284 3.214 20.5285 0 30.3004 0H30.5846C41.3185 0 45.9093 3.79179 45.9093 12.6574V24.43C45.9093 33.2956 41.3185 37.0874 30.5846 37.0874Z" fill="#B9B4C7"/>
<path d="M15.1069 26.8496L19.8926 26.3027L19.8916 26.2936L19.8905 26.2845L15.1069 26.8496ZM16.5935 25.3689L16.9712 30.1709L16.9804 30.1702L16.5935 25.3689ZM18.3861 26.5968L23.1731 26.0615L23.1714 26.0466L23.1697 26.0317L18.3861 26.5968ZM18.3861 10.6351L23.1513 11.3387L23.167 11.2319L23.178 11.1246L18.3861 10.6351ZM16.5935 11.8629L16.9625 7.06025L16.9199 7.05698L16.8772 7.05446L16.5935 11.8629ZM15.0851 10.4004L10.2938 9.9048L10.2902 9.94002L10.2871 9.9753L15.0851 10.4004ZM30.5846 32.2706H30.3004V41.9042H30.5846V32.2706ZM30.3004 32.2706C25.8314 32.2706 23.377 31.5169 22.0598 30.6289C21.0036 29.9167 20.1764 28.786 19.8926 26.3027L10.3213 27.3965C10.8464 31.9911 12.7627 35.9793 16.6744 38.6166C20.3252 41.0779 25.0631 41.9042 30.3004 41.9042V32.2706ZM19.8905 26.2845C20.0428 27.5736 19.5074 28.6346 18.8841 29.2597C18.277 29.8686 17.5652 30.1242 16.9712 30.1709L16.2158 20.567C13.504 20.7803 9.8153 23.1131 10.3234 27.4146L19.8905 26.2845ZM16.9804 30.1702C16.3368 30.2221 15.6612 30.0576 15.0653 29.6481C14.4775 29.2442 13.7518 28.4254 13.6026 27.1618L23.1697 26.0317C22.694 22.005 18.9032 20.3504 16.2066 20.5677L16.9804 30.1702ZM13.5991 27.132C14.015 30.8514 15.4395 34.3685 18.9356 36.6486C22.0561 38.6837 26.0783 39.1958 30.3223 39.1958V29.5622C26.4995 29.5622 24.8706 29.0179 24.1982 28.5794C23.9014 28.3858 23.3912 28.0118 23.1731 26.0615L13.5991 27.132ZM30.3223 39.1958H30.6065V29.5622H30.3223V39.1958ZM30.6065 39.1958C35.2455 39.1958 39.7555 38.5814 43.0332 35.8742C46.5815 32.9435 47.4688 28.6487 47.4688 24.43H37.8352C37.8352 27.5602 37.1485 28.2399 36.8984 28.4465C36.3777 28.8765 34.865 29.5622 30.6065 29.5622V39.1958ZM47.4688 24.43V12.6574H37.8352V24.43H47.4688ZM47.4688 12.6574C47.4688 8.43869 46.5815 4.14394 43.0332 1.21325C39.7555 -1.49399 35.2455 -2.10838 30.6065 -2.10838V7.52523C34.865 7.52523 36.3777 8.21088 36.8984 8.6409C37.1485 8.84747 37.8352 9.52719 37.8352 12.6574H47.4688ZM30.6065 -2.10838H30.3223V7.52523H30.6065V-2.10838ZM30.3223 -2.10838C26.0555 -2.10838 22.0021 -1.588 18.8694 0.492426C15.3656 2.81923 13.9776 6.39279 13.5942 10.1456L23.178 11.1246C23.3849 9.0994 23.9097 8.70963 24.1988 8.5176C24.859 8.07919 26.4787 7.52523 30.3223 7.52523V-2.10838ZM13.621 9.93151C13.9553 7.66714 15.9199 6.98015 16.9625 7.06025L16.2245 16.6656C19.1472 16.8901 22.5983 15.0836 23.1513 11.3387L13.621 9.93151ZM16.8772 7.05446C17.5073 7.09164 18.2368 7.35306 18.8496 7.95637C19.4699 8.567 19.993 9.58429 19.8831 10.8254L10.2871 9.9753C9.91825 14.1386 13.4592 16.5032 16.3098 16.6713L16.8772 7.05446ZM19.8763 10.8959C20.1392 8.35414 20.9721 7.20177 22.0253 6.48176C23.3398 5.58322 25.802 4.8168 30.3004 4.8168V-4.8168C25.027 -4.8168 20.2532 -3.97622 16.5887 -1.47117C12.6631 1.21241 10.7742 5.26021 10.2938 9.9048L19.8763 10.8959ZM30.3004 4.8168H30.5846V-4.8168H30.3004V4.8168ZM30.5846 4.8168C35.572 4.8168 38.0148 5.73512 39.2047 6.71792C40.1728 7.5175 41.0925 9.02159 41.0925 12.6574H50.7261C50.7261 7.42758 49.3504 2.60298 45.3396 -0.70973C41.5506 -3.83922 36.3311 -4.8168 30.5846 -4.8168V4.8168ZM41.0925 12.6574V24.43H50.7261V12.6574H41.0925ZM41.0925 24.43C41.0925 28.0658 40.1728 29.5699 39.2047 30.3695C38.0148 31.3523 35.572 32.2706 30.5846 32.2706V41.9042C36.3311 41.9042 41.5506 40.9266 45.3396 37.7971C49.3504 34.4844 50.7261 29.6598 50.7261 24.43H41.0925Z" fill="#B9B4C7" mask="url(#path-1-inside-1_43_350)"/>
<mask id="path-3-inside-2_43_350" fill="white">
<path d="M29.7967 19.8979H1.63959C0.743279 19.8979 0 19.284 0 18.5437C0 17.8034 0.743279 17.1895 1.63959 17.1895H29.7967C30.6931 17.1895 31.4363 17.8034 31.4363 18.5437C31.4363 19.284 30.7149 19.8979 29.7967 19.8979Z"/>
</mask>
<path d="M29.7967 19.8979H1.63959C0.743279 19.8979 0 19.284 0 18.5437C0 17.8034 0.743279 17.1895 1.63959 17.1895H29.7967C30.6931 17.1895 31.4363 17.8034 31.4363 18.5437C31.4363 19.284 30.7149 19.8979 29.7967 19.8979Z" fill="#B9B4C7"/>
<path d="M29.7967 15.0811H1.63959V24.7147H29.7967V15.0811ZM1.63959 15.0811C2.27181 15.0811 2.95599 15.293 3.5511 15.7846C4.1479 16.2775 4.8168 17.2215 4.8168 18.5437H-4.8168C-4.8168 22.7651 -1.01412 24.7147 1.63959 24.7147V15.0811ZM4.8168 18.5437C4.8168 19.8658 4.1479 20.8099 3.5511 21.3028C2.95599 21.7943 2.27181 22.0063 1.63959 22.0063V12.3726C-1.01412 12.3726 -4.8168 14.3222 -4.8168 18.5437H4.8168ZM1.63959 22.0063H29.7967V12.3726H1.63959V22.0063ZM29.7967 22.0063C29.1645 22.0063 28.4803 21.7943 27.8852 21.3028C27.2884 20.8099 26.6195 19.8658 26.6195 18.5437H36.2531C36.2531 14.3222 32.4505 12.3726 29.7967 12.3726V22.0063ZM26.6195 18.5437C26.6195 17.2696 27.2505 16.3205 27.8766 15.7985C28.497 15.2814 29.1952 15.0811 29.7967 15.0811V24.7147C32.5171 24.7147 36.2531 22.7279 36.2531 18.5437H26.6195Z" fill="#B9B4C7" mask="url(#path-3-inside-2_43_350)"/>
<mask id="path-5-inside-3_43_350" fill="white">
<path d="M24.9217 25.9469C24.5064 25.9469 24.091 25.8206 23.7631 25.5497C23.1291 25.0261 23.1291 24.1594 23.7631 23.6358L29.9279 18.5439L23.7631 13.4521C23.1291 12.9284 23.1291 12.0617 23.7631 11.5381C24.3971 11.0145 25.4464 11.0145 26.0804 11.5381L33.4038 17.5869C34.0378 18.1106 34.0378 18.9773 33.4038 19.5009L26.0804 25.5497C25.7524 25.8206 25.3371 25.9469 24.9217 25.9469Z"/>
</mask>
<path d="M24.9217 25.9469C24.5064 25.9469 24.091 25.8206 23.7631 25.5497C23.1291 25.0261 23.1291 24.1594 23.7631 23.6358L29.9279 18.5439L23.7631 13.4521C23.1291 12.9284 23.1291 12.0617 23.7631 11.5381C24.3971 11.0145 25.4464 11.0145 26.0804 11.5381L33.4038 17.5869C34.0378 18.1106 34.0378 18.9773 33.4038 19.5009L26.0804 25.5497C25.7524 25.8206 25.3371 25.9469 24.9217 25.9469Z" fill="#B9B4C7"/>
<path d="M23.7631 23.6358L20.6957 19.9219L20.6957 19.9219L23.7631 23.6358ZM29.9279 18.5439L32.9953 22.2577L37.4918 18.5439L32.9954 14.8301L29.9279 18.5439ZM23.7631 13.4521L26.8305 9.73824L26.8305 9.73824L23.7631 13.4521ZM26.0804 11.5381L29.1478 7.82429L29.1478 7.82428L26.0804 11.5381ZM33.4038 17.5869L30.3364 21.3008L30.3364 21.3008L33.4038 17.5869ZM33.4038 19.5009L36.4713 23.2147L36.4713 23.2147L33.4038 19.5009ZM26.0804 25.5497L23.0129 21.8359L23.0129 21.8359L26.0804 25.5497ZM24.9217 21.1301C25.4565 21.1301 26.173 21.2928 26.8305 21.8359L20.6957 29.2635C22.009 30.3483 23.5562 30.7637 24.9217 30.7637V21.1301ZM26.8305 21.8359C27.5541 22.4335 28.1044 23.4183 28.1044 24.5927C28.1044 25.7671 27.5541 26.752 26.8305 27.3496L20.6957 19.9219C17.7292 22.3721 17.7292 26.8134 20.6957 29.2635L26.8305 21.8359ZM26.8305 27.3496L32.9953 22.2577L26.8605 14.8301L20.6957 19.9219L26.8305 27.3496ZM32.9954 14.8301L26.8305 9.73824L20.6956 17.1659L26.8605 22.2577L32.9954 14.8301ZM26.8305 9.73824C27.5541 10.3359 28.1044 11.3207 28.1044 12.4951C28.1044 13.6695 27.5541 14.6543 26.8305 15.2519L20.6957 7.82428C17.7292 10.2744 17.7292 14.7157 20.6957 17.1659L26.8305 9.73824ZM26.8305 15.2519C26.157 15.8082 25.4435 15.9622 24.9217 15.9622C24.4 15.9622 23.6864 15.8082 23.0129 15.2519L29.1478 7.82428C26.7333 5.83002 23.1102 5.83002 20.6957 7.82428L26.8305 15.2519ZM23.0129 15.2519L30.3364 21.3008L36.4713 13.8731L29.1478 7.82429L23.0129 15.2519ZM30.3364 21.3008C29.6129 20.7031 29.0625 19.7183 29.0625 18.5439C29.0625 17.3695 29.6129 16.3847 30.3364 15.7871L36.4713 23.2147C39.4377 20.7646 39.4377 16.3233 36.4713 13.8731L30.3364 21.3008ZM30.3364 15.7871L23.0129 21.8359L29.1478 29.2635L36.4713 23.2147L30.3364 15.7871ZM23.0129 21.8359C23.6704 21.2928 24.3869 21.1301 24.9217 21.1301V30.7637C26.2872 30.7637 27.8344 30.3483 29.1478 29.2635L23.0129 21.8359Z" fill="#B9B4C7" mask="url(#path-5-inside-3_43_350)"/>
</svg>
