<svg width="48" height="42" viewBox="0 0 48 42" fill="none" xmlns="http://www.w3.org/2000/svg">
<path d="M3 38.8541H44.3127" stroke="#B9B4C7" stroke-width="5.63131" stroke-miterlimit="10" stroke-linecap="round" stroke-linejoin="round"/>
<path d="M5.06567 16.7007C5.06567 15.5774 5.66471 14.5094 6.65621 13.8097L21.1157 3.77343C22.6029 2.74219 24.6892 2.74219 26.1971 3.77343L40.6566 13.7912C41.6687 14.491 42.2471 15.559 42.2471 16.7007V38.8541" stroke="#B9B4C7" stroke-width="5.63131" stroke-miterlimit="10" stroke-linecap="round" stroke-linejoin="round"/>
<path d="M4.96069 38.8541L5.02266 24.1772" stroke="#B9B4C7" stroke-width="5.63131" stroke-miterlimit="10" stroke-linecap="round" stroke-linejoin="round"/>
<path d="M25.7219 29.6466H21.5906C19.8762 29.6466 18.4922 30.8804 18.4922 32.4089V38.8541H28.8204V32.4089C28.8204 30.8804 27.4364 29.6466 25.7219 29.6466Z" stroke="#B9B4C7" stroke-width="5.63131" stroke-miterlimit="10" stroke-linejoin="round"/>
<path d="M18.4923 23.6617H14.361C13.2249 23.6617 12.2954 22.833 12.2954 21.8202V19.0579C12.2954 18.0451 13.2249 17.2164 14.361 17.2164H18.4923C19.6284 17.2164 20.558 18.0451 20.558 19.0579V21.8202C20.558 22.833 19.6284 23.6617 18.4923 23.6617Z" stroke="#B9B4C7" stroke-width="5.63131" stroke-miterlimit="10" stroke-linejoin="round"/>
<path d="M32.9518 23.6617H28.8205C27.6844 23.6617 26.7549 22.833 26.7549 21.8202V19.0579C26.7549 18.0451 27.6844 17.2164 28.8205 17.2164H32.9518C34.0879 17.2164 35.0174 18.0451 35.0174 19.0579V21.8202C35.0174 22.833 34.0879 23.6617 32.9518 23.6617Z" stroke="#B9B4C7" stroke-width="5.63131" stroke-miterlimit="10" stroke-linejoin="round"/>
<path d="M38.1166 11.2314L38.0546 5.70691H28.9658" stroke="#B9B4C7" stroke-width="5.63131" stroke-miterlimit="10" stroke-linecap="round" stroke-linejoin="round"/>
</svg>
