<svg width="46" height="44" viewBox="0 0 46 44" fill="none" xmlns="http://www.w3.org/2000/svg">
<path d="M3 21.2599V25.0001C3 31.0001 7 35.0001 13 35.0001H21L29.9 40.9201C31.22 41.8001 33 40.8601 33 39.2601V35.0001C39 35.0001 43 31.0001 43 25.0001V13C43 7 39 3 33 3H13C7 3 3 7 3 13" stroke="#B9B4C7" stroke-width="4.65174" stroke-miterlimit="10" stroke-linecap="round" stroke-linejoin="round"/>
<path d="M22.9997 20.8601V20.4401C22.9997 19.0801 23.8397 18.3601 24.6797 17.7801C25.4997 17.2201 26.3197 16.5002 26.3197 15.1802C26.3197 13.3402 24.8397 11.8601 22.9997 11.8601C21.1597 11.8601 19.6797 13.3402 19.6797 15.1802" stroke="#B9B4C7" stroke-width="4.65174" stroke-linecap="round" stroke-linejoin="round"/>
<path d="M22.9912 25.6401H23.0092" stroke="#B9B4C7" stroke-width="4.65174" stroke-linecap="round" stroke-linejoin="round"/>
</svg>
