<svg width="38" height="38" viewBox="0 0 38 38" fill="none" xmlns="http://www.w3.org/2000/svg">
<mask id="path-1-inside-1_43_334" fill="white">
<path d="M35.6389 38H1.42556C0.646252 38 0 37.3538 0 36.5745C0 35.7952 0.646252 35.1489 1.42556 35.1489H35.6389C36.4182 35.1489 37.0645 35.7952 37.0645 36.5745C37.0645 37.3538 36.4182 38 35.6389 38Z"/>
</mask>
<path d="M35.6389 38H1.42556C0.646252 38 0 37.3538 0 36.5745C0 35.7952 0.646252 35.1489 1.42556 35.1489H35.6389C36.4182 35.1489 37.0645 35.7952 37.0645 36.5745C37.0645 37.3538 36.4182 38 35.6389 38Z" fill="#B9B4C7"/>
<path d="M35.6389 34.8031H1.42556V41.197H35.6389V34.8031ZM1.42556 34.8031C2.41189 34.8031 3.19697 35.5881 3.19697 36.5745H-3.19697C-3.19697 39.1194 -1.11939 41.197 1.42556 41.197V34.8031ZM3.19697 36.5745C3.19697 37.5608 2.41189 38.3459 1.42556 38.3459V31.952C-1.11939 31.952 -3.19697 34.0295 -3.19697 36.5745H3.19697ZM1.42556 38.3459H35.6389V31.952H1.42556V38.3459ZM35.6389 38.3459C34.6526 38.3459 33.8675 37.5608 33.8675 36.5745H40.2614C40.2614 34.0295 38.1839 31.952 35.6389 31.952V38.3459ZM33.8675 36.5745C33.8675 35.5881 34.6526 34.8031 35.6389 34.8031V41.197C38.1839 41.197 40.2614 39.1194 40.2614 36.5745H33.8675Z" fill="#B9B4C7" mask="url(#path-1-inside-1_43_334)"/>
<path d="M30.7463 3.93163L30.7462 3.93165L30.752 3.9373C32.4767 5.6448 33.0853 7.07908 33.0722 8.37337L33.0722 8.38144V8.38951C33.0722 9.63067 32.4638 11.0521 30.752 12.7466L30.7468 12.7518L30.7416 12.7571L28.814 14.7006C24.6646 13.353 21.3327 10.0238 19.9812 5.87599L21.9255 3.93163C23.6485 2.20868 25.1103 1.59047 26.3612 1.59856C27.6176 1.60669 29.0634 2.24881 30.7463 3.93163Z" fill="#B9B4C7" stroke="#B9B4C7" stroke-width="3.19697"/>
<path d="M16.0357 11.6921C16.2755 12.0977 16.5684 12.5661 16.855 12.9351C17.1641 13.3996 17.4975 13.7984 17.6811 14.018C17.6893 14.0278 17.6973 14.0373 17.7049 14.0464C17.7147 14.0591 17.7263 14.0742 17.7388 14.0905C17.7823 14.147 17.8375 14.2189 17.8738 14.2643C17.9068 14.3056 17.9562 14.366 18.0142 14.4285C18.0284 14.4438 18.0503 14.4672 18.0792 14.4957C18.7393 15.2834 19.4615 15.9859 20.1119 16.5419C20.1931 16.6215 20.2728 16.6955 20.3455 16.7591C20.3883 16.7965 20.4376 16.8382 20.4891 16.8784C20.4899 16.879 20.491 16.8798 20.4922 16.8808C20.5014 16.888 20.5223 16.9044 20.5524 16.9261C20.897 17.2146 21.3008 17.5379 21.6804 17.7869C22.0977 18.0841 22.5269 18.3701 22.9838 18.6401C23.3889 18.8801 23.7982 19.0952 24.2005 19.2959L13.9431 29.5534L13.9388 29.5577C13.9257 29.566 13.9054 29.5779 13.8786 29.5913C13.8438 29.6087 13.8095 29.6229 13.7814 29.6326C13.7725 29.6357 13.7657 29.6378 13.7611 29.6392L6.50659 30.6594L6.48646 30.6622L6.4664 30.6655C6.32397 30.6893 6.18377 30.7008 6.04492 30.7008C5.39949 30.7008 4.86872 30.4788 4.51317 30.1412C4.11825 29.7268 3.86971 29.0378 3.99598 28.1792L3.99601 28.1792L3.99733 28.1698L5.01531 20.9497C5.01653 20.9459 5.01808 20.9413 5.02002 20.9358C5.03022 20.907 5.04568 20.87 5.06546 20.8304C5.08535 20.7906 5.10423 20.7591 5.11798 20.7388C5.11937 20.7367 5.12061 20.7349 5.1217 20.7333L15.3724 10.4827C15.5771 10.881 15.794 11.2841 16.0357 11.6921ZM16.0357 11.6921C16.0355 11.6918 16.0353 11.6914 16.0351 11.6911L17.4113 10.8779L16.0362 11.6928C16.036 11.6926 16.0359 11.6923 16.0357 11.6921ZM24.8178 18.6786L24.8172 18.6793L24.8178 18.6786Z" fill="#B9B4C7" stroke="#B9B4C7" stroke-width="3.19697"/>
</svg>
