<svg width="45" height="43" viewBox="0 0 45 43" fill="none" xmlns="http://www.w3.org/2000/svg">
<mask id="path-1-inside-1_43_354" fill="white">
<path d="M44.1069 21.8816C44.1069 10.2453 34.203 0.763184 22.0491 0.763184C9.89519 0.763184 -0.00878906 10.2453 -0.00878906 21.8816C-0.00878906 28.0059 2.74844 33.5178 7.1159 37.3825C7.1159 37.4036 7.1159 37.4036 7.09384 37.4247C7.31442 37.6359 7.57911 37.8049 7.79969 37.9949C7.93204 38.1005 8.04233 38.2061 8.17468 38.2906C8.57172 38.6074 9.01288 38.903 9.43198 39.1987C9.58638 39.3043 9.71873 39.3888 9.87313 39.4943C10.2922 39.7689 10.7334 40.0223 11.1966 40.2546C11.351 40.3391 11.5275 40.4447 11.6819 40.5291C12.123 40.7614 12.5862 40.9726 13.0715 41.1627C13.248 41.2472 13.4244 41.3316 13.6009 41.395C14.0862 41.5851 14.5715 41.754 15.0567 41.9018C15.2332 41.9652 15.4097 42.0286 15.5861 42.0708C16.1155 42.2186 16.6449 42.3453 17.1743 42.472C17.3287 42.5143 17.4831 42.5565 17.6596 42.5776C18.2772 42.7043 18.8948 42.7888 19.5345 42.8522C19.6227 42.8522 19.7109 42.8733 19.7992 42.8944C20.5491 42.9578 21.2991 43 22.0491 43C22.799 43 23.549 42.9578 24.2769 42.8944C24.3651 42.8944 24.4534 42.8733 24.5416 42.8522C25.1813 42.7888 25.7989 42.7043 26.4165 42.5776C26.5709 42.5565 26.7253 42.4932 26.9018 42.472C27.4312 42.3453 27.9826 42.2397 28.49 42.0708C28.6664 42.0074 28.8429 41.9441 29.0194 41.9018C29.5046 41.7329 30.012 41.5851 30.4752 41.395C30.6516 41.3316 30.8281 41.2472 31.0046 41.1627C31.4678 40.9726 31.931 40.7614 32.3942 40.5291C32.5707 40.4447 32.7251 40.3391 32.8795 40.2546C33.3206 40.0012 33.7618 39.7689 34.203 39.4943C34.3574 39.4099 34.4897 39.3043 34.6441 39.1987C35.0853 38.903 35.5044 38.6074 35.9014 38.2906C36.0338 38.185 36.144 38.0794 36.2764 37.9949C36.519 37.8049 36.7617 37.6148 36.9822 37.4247C36.9822 37.4036 36.9822 37.4036 36.9602 37.3825C41.3497 33.5178 44.1069 28.0059 44.1069 21.8816ZM32.9457 32.3774C26.968 28.5339 17.1743 28.5339 11.1525 32.3774C10.1819 32.9899 9.38786 33.7079 8.72612 34.4893C5.37333 31.237 3.29989 26.7811 3.29989 21.8816C3.29989 11.9771 11.7039 3.93094 22.0491 3.93094C32.3942 3.93094 40.7983 11.9771 40.7983 21.8816C40.7983 26.7811 38.7248 31.237 35.372 34.4893C34.7323 33.7079 33.9162 32.9899 32.9457 32.3774Z"/>
</mask>
<path d="M44.1069 21.8816C44.1069 10.2453 34.203 0.763184 22.0491 0.763184C9.89519 0.763184 -0.00878906 10.2453 -0.00878906 21.8816C-0.00878906 28.0059 2.74844 33.5178 7.1159 37.3825C7.1159 37.4036 7.1159 37.4036 7.09384 37.4247C7.31442 37.6359 7.57911 37.8049 7.79969 37.9949C7.93204 38.1005 8.04233 38.2061 8.17468 38.2906C8.57172 38.6074 9.01288 38.903 9.43198 39.1987C9.58638 39.3043 9.71873 39.3888 9.87313 39.4943C10.2922 39.7689 10.7334 40.0223 11.1966 40.2546C11.351 40.3391 11.5275 40.4447 11.6819 40.5291C12.123 40.7614 12.5862 40.9726 13.0715 41.1627C13.248 41.2472 13.4244 41.3316 13.6009 41.395C14.0862 41.5851 14.5715 41.754 15.0567 41.9018C15.2332 41.9652 15.4097 42.0286 15.5861 42.0708C16.1155 42.2186 16.6449 42.3453 17.1743 42.472C17.3287 42.5143 17.4831 42.5565 17.6596 42.5776C18.2772 42.7043 18.8948 42.7888 19.5345 42.8522C19.6227 42.8522 19.7109 42.8733 19.7992 42.8944C20.5491 42.9578 21.2991 43 22.0491 43C22.799 43 23.549 42.9578 24.2769 42.8944C24.3651 42.8944 24.4534 42.8733 24.5416 42.8522C25.1813 42.7888 25.7989 42.7043 26.4165 42.5776C26.5709 42.5565 26.7253 42.4932 26.9018 42.472C27.4312 42.3453 27.9826 42.2397 28.49 42.0708C28.6664 42.0074 28.8429 41.9441 29.0194 41.9018C29.5046 41.7329 30.012 41.5851 30.4752 41.395C30.6516 41.3316 30.8281 41.2472 31.0046 41.1627C31.4678 40.9726 31.931 40.7614 32.3942 40.5291C32.5707 40.4447 32.7251 40.3391 32.8795 40.2546C33.3206 40.0012 33.7618 39.7689 34.203 39.4943C34.3574 39.4099 34.4897 39.3043 34.6441 39.1987C35.0853 38.903 35.5044 38.6074 35.9014 38.2906C36.0338 38.185 36.144 38.0794 36.2764 37.9949C36.519 37.8049 36.7617 37.6148 36.9822 37.4247C36.9822 37.4036 36.9822 37.4036 36.9602 37.3825C41.3497 33.5178 44.1069 28.0059 44.1069 21.8816ZM32.9457 32.3774C26.968 28.5339 17.1743 28.5339 11.1525 32.3774C10.1819 32.9899 9.38786 33.7079 8.72612 34.4893C5.37333 31.237 3.29989 26.7811 3.29989 21.8816C3.29989 11.9771 11.7039 3.93094 22.0491 3.93094C32.3942 3.93094 40.7983 11.9771 40.7983 21.8816C40.7983 26.7811 38.7248 31.237 35.372 34.4893C34.7323 33.7079 33.9162 32.9899 32.9457 32.3774Z" fill="#B9B4C7"/>
<path d="M7.1159 37.3825H11.6912V35.3217L10.1479 33.9561L7.1159 37.3825ZM7.09384 37.4247L3.92975 34.1199L0.477895 37.4247L3.92975 40.7296L7.09384 37.4247ZM7.79969 37.9949L4.81309 41.461L4.87862 41.5175L4.94623 41.5714L7.79969 37.9949ZM8.17468 38.2906L11.0281 34.7141L10.8396 34.5637L10.6363 34.4339L8.17468 38.2906ZM9.43198 39.1987L6.79453 42.9373L6.82176 42.9565L6.84926 42.9753L9.43198 39.1987ZM9.87313 39.4943L7.29042 43.271L7.32797 43.2967L7.36602 43.3216L9.87313 39.4943ZM11.1966 40.2546L13.3926 36.2407L13.3208 36.2015L13.2477 36.1648L11.1966 40.2546ZM11.6819 40.5291L9.48592 44.543L9.51788 44.5605L9.55012 44.5775L11.6819 40.5291ZM13.0715 41.1627L15.0471 37.0359L14.896 36.9636L14.7401 36.9025L13.0715 41.1627ZM13.6009 41.395L15.2695 37.1348L15.2086 37.1109L15.147 37.0888L13.6009 41.395ZM15.0567 41.9018L16.6028 37.5957L16.4973 37.5578L16.39 37.5251L15.0567 41.9018ZM15.5861 42.0708L16.8167 37.6641L16.7343 37.6411L16.6511 37.6212L15.5861 42.0708ZM17.1743 42.472L18.3815 38.0589L18.3107 38.0395L18.2393 38.0224L17.1743 42.472ZM17.6596 42.5776L18.5791 38.0957L18.3924 38.0574L18.2032 38.0347L17.6596 42.5776ZM19.5345 42.8522L19.0835 47.4052L19.3085 47.4275H19.5345V42.8522ZM19.7992 42.8944L18.7341 47.344L19.07 47.4244L19.414 47.4535L19.7992 42.8944ZM24.2769 42.8944V38.3191H24.0782L23.8802 38.3363L24.2769 42.8944ZM24.5416 42.8522L24.0907 38.2991L23.7801 38.3299L23.4766 38.4025L24.5416 42.8522ZM26.4165 42.5776L25.7965 38.0445L25.6459 38.0651L25.497 38.0957L26.4165 42.5776ZM26.9018 42.472L27.4455 47.0149L27.7089 46.9834L27.9668 46.9217L26.9018 42.472ZM28.49 42.0708L29.9355 46.4117L29.986 46.3949L30.036 46.377L28.49 42.0708ZM29.0194 41.9018L30.0844 46.3515L30.3073 46.2981L30.5237 46.2228L29.0194 41.9018ZM30.4752 41.395L28.9291 37.0888L28.8329 37.1234L28.7384 37.1622L30.4752 41.395ZM31.0046 41.1627L29.2677 36.9299L29.1469 36.9795L29.029 37.0359L31.0046 41.1627ZM32.3942 40.5291L30.4187 36.4023L30.3807 36.4205L30.3432 36.4393L32.3942 40.5291ZM32.8795 40.2546L35.0754 44.2685L35.1172 44.2456L35.1585 44.2219L32.8795 40.2546ZM34.203 39.4943L32.007 35.4805L31.8945 35.542L31.7855 35.6098L34.203 39.4943ZM34.6441 39.1987L32.0969 35.398L32.0791 35.4099L32.0614 35.422L34.6441 39.1987ZM35.9014 38.2906L38.7549 41.8671L35.9014 38.2906ZM36.2764 37.9949L38.738 41.8516L38.9241 41.7329L39.0978 41.5967L36.2764 37.9949ZM36.9822 37.4247L39.9688 40.8908L41.5575 39.5219V37.4247H36.9822ZM36.9602 37.3825L33.9368 33.9485L30.1968 37.2413L33.7961 40.6873L36.9602 37.3825ZM32.9457 32.3774L30.4712 36.2259L30.4876 36.2364L30.504 36.2468L32.9457 32.3774ZM11.1525 32.3774L13.5941 36.2468L13.6041 36.2405L13.6141 36.2341L11.1525 32.3774ZM8.72612 34.4893L5.54052 37.7734L9.05412 41.1816L12.2176 37.4461L8.72612 34.4893ZM35.372 34.4893L31.8317 37.3875L34.9848 41.2391L38.5576 37.7734L35.372 34.4893ZM48.6822 21.8816C48.6822 7.53284 36.5401 -3.81212 22.0491 -3.81212V5.33849C31.8658 5.33849 39.5316 12.9579 39.5316 21.8816H48.6822ZM22.0491 -3.81212C7.55803 -3.81212 -4.5841 7.53284 -4.5841 21.8816H4.56652C4.56652 12.9579 12.2323 5.33849 22.0491 5.33849V-3.81212ZM-4.5841 21.8816C-4.5841 29.4241 -1.18132 36.1498 4.08391 40.8089L10.1479 33.9561C6.67821 30.8858 4.56652 26.5878 4.56652 21.8816H-4.5841ZM2.54059 37.3825C2.54059 37.4761 2.535 37.2069 2.56501 36.9197C2.60893 36.4993 2.72991 35.9131 3.05758 35.2856C3.3407 34.7435 3.66738 34.3908 3.77294 34.2785C3.87178 34.1733 3.97084 34.0806 3.92975 34.1199L10.2579 40.7296C10.2585 40.7291 10.2636 40.7242 10.2691 40.7188C10.2749 40.7133 10.2855 40.7031 10.2984 40.6904C10.3202 40.6692 10.3744 40.616 10.4402 40.5459C10.552 40.427 10.8828 40.069 11.1687 39.5216C11.4991 38.8889 11.6215 38.2974 11.6661 37.8704C11.6849 37.6904 11.6889 37.5478 11.6902 37.4851C11.6909 37.45 11.6911 37.4219 11.6912 37.4074C11.6912 37.3996 11.6912 37.3932 11.6912 37.3894C11.6912 37.3859 11.6912 37.3827 11.6912 37.3825H2.54059ZM3.92975 40.7296C4.24109 41.0277 4.54083 41.2557 4.67471 41.3577C4.77078 41.4309 4.78516 41.4412 4.82757 41.474C4.85506 41.4953 4.84318 41.4869 4.81309 41.461L10.7863 34.5289C10.6459 34.4079 10.5182 34.3072 10.4272 34.2367C10.351 34.1778 10.2441 34.097 10.2188 34.0778C10.171 34.0414 10.1605 34.0327 10.1636 34.0352C10.1685 34.0393 10.2048 34.0691 10.2579 34.1199L3.92975 40.7296ZM4.94623 41.5714C4.93318 41.561 4.92956 41.5577 4.95188 41.5764C4.96019 41.5834 5.02263 41.6362 5.07163 41.6767C5.18323 41.769 5.41205 41.9551 5.71307 42.1473L10.6363 34.4339C10.7244 34.4902 10.7924 34.5394 10.8364 34.5727C10.8584 34.5893 10.8754 34.6027 10.8862 34.6113C10.8917 34.6157 10.8959 34.6191 10.8986 34.6213C10.9 34.6224 10.901 34.6232 10.9017 34.6238C10.902 34.6241 10.9023 34.6243 10.9025 34.6244C10.9027 34.6246 10.9027 34.6246 10.9027 34.6246C10.9027 34.6246 10.9027 34.6246 10.9025 34.6244C10.9023 34.6243 10.9021 34.6241 10.9017 34.6238C10.9011 34.6233 10.9001 34.6224 10.8987 34.6213C10.8959 34.619 10.8922 34.6158 10.8867 34.6112C10.881 34.6064 10.8751 34.6015 10.8668 34.5944C10.8591 34.588 10.8494 34.5798 10.8391 34.5712C10.8186 34.5539 10.7915 34.5312 10.761 34.506C10.7301 34.4805 10.6937 34.4508 10.6532 34.4185L4.94623 41.5714ZM5.32122 41.8671C5.85869 42.2959 6.50128 42.7304 6.79453 42.9373L12.0694 35.4601C11.5245 35.0756 11.2847 34.9189 11.0281 34.7141L5.32122 41.8671ZM6.84926 42.9753C6.95776 43.0495 7.05596 43.1145 7.1248 43.1602C7.19934 43.2096 7.24452 43.2396 7.29042 43.271L12.4558 35.7177C12.3473 35.6435 12.2491 35.5785 12.1803 35.5329C12.1058 35.4835 12.0606 35.4534 12.0147 35.422L6.84926 42.9753ZM7.36602 43.3216C7.93689 43.6956 8.53075 44.0361 9.14556 44.3444L13.2477 36.1648C12.936 36.0085 12.6476 35.8422 12.3802 35.6671L7.36602 43.3216ZM9.00065 44.2685C9.02833 44.2836 9.06819 44.3063 9.16025 44.3592C9.23362 44.4013 9.3592 44.4737 9.48592 44.543L13.8778 36.5153C13.8501 36.5001 13.8103 36.4774 13.7182 36.4246C13.6449 36.3824 13.5193 36.3101 13.3926 36.2407L9.00065 44.2685ZM9.55012 44.5775C10.1482 44.8924 10.7666 45.1736 11.4029 45.4229L14.7401 36.9025C14.4059 36.7716 14.0978 36.6305 13.8136 36.4808L9.55012 44.5775ZM11.096 45.2895C11.2305 45.3539 11.6202 45.5451 12.0549 45.7012L15.147 37.0888C15.1784 37.1001 15.1998 37.1087 15.2093 37.1126C15.2186 37.1165 15.2196 37.1171 15.2096 37.1126C15.1993 37.1079 15.1822 37.1001 15.1542 37.0869C15.1248 37.0731 15.0933 37.058 15.0471 37.0359L11.096 45.2895ZM11.9323 45.6552C12.5248 45.8873 13.1219 46.0953 13.7234 46.2786L16.39 37.5251C16.021 37.4127 15.6475 37.2829 15.2695 37.1348L11.9323 45.6552ZM13.5107 46.208C13.6416 46.255 14.0575 46.4094 14.5211 46.5204L16.6511 37.6212C16.6904 37.6306 16.7191 37.6386 16.735 37.6432C16.7508 37.6478 16.7574 37.6501 16.7517 37.6482C16.7458 37.6463 16.7323 37.6418 16.7065 37.6327C16.6938 37.6282 16.6793 37.6231 16.6618 37.6168C16.6439 37.6104 16.6254 37.6038 16.6028 37.5957L13.5107 46.208ZM14.3556 46.4775C14.9808 46.6521 15.5931 46.7981 16.1093 46.9217L18.2393 38.0224C17.6967 37.8925 17.2502 37.7851 16.8167 37.6641L14.3556 46.4775ZM15.9671 46.8852C16.0922 46.9194 16.5561 47.0535 17.1159 47.1205L18.2032 38.0347C18.3178 38.0484 18.402 38.0664 18.4388 38.0749C18.4559 38.0789 18.4627 38.0808 18.4527 38.0782C18.44 38.0748 18.4237 38.0704 18.3815 38.0589L15.9671 46.8852ZM16.74 47.0596C17.5541 47.2266 18.3353 47.3311 19.0835 47.4052L19.9854 38.2991C19.4543 38.2465 19.0003 38.1821 18.5791 38.0957L16.74 47.0596ZM19.5345 47.4275C19.2207 47.4275 18.9793 47.3904 18.8584 47.3687C18.7515 47.3495 18.6676 47.3281 18.7341 47.344L20.8642 38.4448C20.8426 38.4396 20.6703 38.3971 20.4753 38.3621C20.2661 38.3245 19.9365 38.2769 19.5345 38.2769V47.4275ZM19.414 47.4535C20.2453 47.5237 21.1309 47.5753 22.0491 47.5753V38.4247C21.4673 38.4247 20.853 38.3918 20.1843 38.3353L19.414 47.4535ZM22.0491 47.5753C22.9666 47.5753 23.8542 47.5238 24.6736 47.4525L23.8802 38.3363C23.2439 38.3917 22.6315 38.4247 22.0491 38.4247V47.5753ZM24.2769 47.4697C24.6789 47.4697 25.0085 47.4221 25.2177 47.3845C25.4128 47.3495 25.585 47.307 25.6066 47.3018L23.4766 38.4025C23.41 38.4185 23.494 38.3971 23.6008 38.3779C23.7218 38.3562 23.9632 38.3191 24.2769 38.3191V47.4697ZM24.9926 47.4052C25.7408 47.3311 26.522 47.2266 27.336 47.0596L25.497 38.0957C25.0758 38.1821 24.6218 38.2465 24.0907 38.2991L24.9926 47.4052ZM27.0365 47.1107C27.2725 47.0785 27.4663 47.036 27.5888 47.0069C27.6514 46.9921 27.7051 46.9784 27.7418 46.9688C27.7734 46.9606 27.812 46.9504 27.8192 46.9485C27.8548 46.9391 27.8184 46.9492 27.7629 46.9615C27.7009 46.9752 27.5898 46.9977 27.4455 47.0149L26.3581 37.9291C26.1256 37.957 25.929 37.9953 25.7836 38.0275C25.6446 38.0583 25.527 38.0895 25.4826 38.1012C25.412 38.1198 25.4443 38.1111 25.4766 38.1034C25.5212 38.0929 25.6377 38.0662 25.7965 38.0445L27.0365 47.1107ZM27.9668 46.9217C28.2113 46.8631 29.178 46.664 29.9355 46.4117L27.0444 37.7299C26.7873 37.8155 26.6511 37.8275 25.8368 38.0224L27.9668 46.9217ZM30.036 46.377C30.0587 46.3688 30.0772 46.3622 30.095 46.3558C30.1125 46.3496 30.127 46.3444 30.1397 46.34C30.1656 46.3309 30.179 46.3263 30.185 46.3244C30.1906 46.3225 30.1841 46.3248 30.1683 46.3294C30.1524 46.334 30.1237 46.3421 30.0844 46.3515L27.9543 37.4522C27.4907 37.5632 27.0748 37.7176 26.9439 37.7646L30.036 46.377ZM30.5237 46.2228C30.6826 46.1674 31.6133 45.8735 32.212 45.6278L28.7384 37.1622C28.4106 37.2967 28.3266 37.2984 27.515 37.5809L30.5237 46.2228ZM32.0212 45.7012C32.4558 45.5451 32.8456 45.3539 32.9801 45.2895L29.029 37.0359C28.9828 37.058 28.9513 37.0731 28.9219 37.0869C28.8939 37.1001 28.8768 37.1079 28.8665 37.1126C28.8564 37.1171 28.8574 37.1165 28.8668 37.1126C28.8763 37.1087 28.8977 37.1001 28.9291 37.0888L32.0212 45.7012ZM32.7414 45.3955C33.3147 45.1603 33.8827 44.9011 34.4453 44.619L30.3432 36.4393C29.9793 36.6218 29.6208 36.785 29.2677 36.9299L32.7414 45.3955ZM34.3697 44.656C34.6483 44.5226 34.8732 44.3901 34.9824 44.3251C35.011 44.3082 35.0384 44.2917 35.0562 44.2811C35.0767 44.2688 35.0879 44.2621 35.0973 44.2565C35.1168 44.2449 35.1039 44.2529 35.0754 44.2685L30.6835 36.2407C30.5779 36.2985 30.4878 36.3514 30.4294 36.386C30.3999 36.4035 30.3719 36.4203 30.353 36.4316C30.3315 36.4445 30.3192 36.4518 30.3078 36.4586C30.2572 36.4887 30.3166 36.4512 30.4187 36.4023L34.3697 44.656ZM35.1585 44.2219C35.3985 44.0841 36.0999 43.7027 36.6204 43.3789L31.7855 35.6098C31.4237 35.835 31.2428 35.9183 30.6005 36.2873L35.1585 44.2219ZM36.3989 43.5082C36.6913 43.3482 36.9206 43.1913 37.0464 43.1033C37.1051 43.0623 37.1681 43.017 37.1893 43.0019C37.221 42.9793 37.2276 42.9748 37.2268 42.9753L32.0614 35.422C31.9834 35.4754 31.9156 35.5237 31.8742 35.5532C31.8638 35.5606 31.853 35.5683 31.8449 35.5741C31.8362 35.5804 31.8292 35.5853 31.8229 35.5898C31.81 35.599 31.8037 35.6034 31.8007 35.6056C31.794 35.6103 31.8124 35.5972 31.8455 35.576C31.88 35.5538 31.9351 35.5198 32.007 35.4805L36.3989 43.5082ZM37.1913 42.9994C37.6858 42.6679 38.2199 42.2939 38.7549 41.8671L33.0479 34.7141C32.7889 34.9208 32.4847 35.1381 32.0969 35.398L37.1913 42.9994ZM38.7549 41.8671C38.7955 41.8347 38.8318 41.805 38.8627 41.7795C38.8932 41.7543 38.9203 41.7316 38.9408 41.7144C38.9511 41.7058 38.9608 41.6976 38.9685 41.6911C38.9769 41.684 38.9827 41.6791 38.9884 41.6743C38.9939 41.6697 38.9976 41.6666 39.0004 41.6642C39.0018 41.6631 39.0028 41.6623 39.0035 41.6617C39.0038 41.6614 39.004 41.6612 39.0042 41.6611C39.0044 41.6609 39.0045 41.6609 39.0045 41.6609C39.0045 41.6609 39.0044 41.661 39.0042 41.6611C39.004 41.6612 39.0038 41.6615 39.0034 41.6617C39.0027 41.6623 39.0017 41.6631 39.0003 41.6643C38.9976 41.6665 38.9934 41.6699 38.988 41.6742C38.9771 41.6829 38.9602 41.6962 38.9381 41.7129C38.8941 41.7461 38.8261 41.7954 38.738 41.8516L33.8148 34.1383C33.5138 34.3304 33.2849 34.5165 33.1733 34.6088C33.1243 34.6493 33.0619 34.7021 33.0536 34.7091C33.0313 34.7278 33.0349 34.7245 33.0479 34.7141L38.7549 41.8671ZM39.0978 41.5967C39.3228 41.4205 39.6526 41.1633 39.9688 40.8908L33.9956 33.9587C33.8707 34.0663 33.7152 34.1892 33.455 34.3931L39.0978 41.5967ZM41.5575 37.4247C41.5575 37.4246 41.5576 37.4214 41.5575 37.4178C41.5575 37.4141 41.5575 37.4077 41.5575 37.3999C41.5574 37.3853 41.5572 37.3572 41.5565 37.3221C41.5552 37.2595 41.5512 37.1168 41.5324 36.9369C41.4878 36.5098 41.3655 35.9184 41.035 35.2856C40.7492 34.7382 40.4184 34.3802 40.3066 34.2613C40.2408 34.1913 40.1865 34.1381 40.1648 34.1168C40.1518 34.1042 40.1413 34.094 40.1355 34.0884C40.1299 34.0831 40.1248 34.0782 40.1243 34.0777L33.7961 40.6873C33.8372 40.7267 33.7381 40.6339 33.6393 40.5288C33.5337 40.4165 33.207 40.0637 32.9239 39.5216C32.5963 38.8942 32.4753 38.308 32.4314 37.8876C32.4013 37.6003 32.4069 37.3311 32.4069 37.4247H41.5575ZM39.9836 40.8165C45.2779 36.1553 48.6822 29.4256 48.6822 21.8816H39.5316C39.5316 26.5863 37.4215 30.8804 33.9368 33.9485L39.9836 40.8165ZM35.4201 28.529C31.5314 26.0286 26.6769 24.9195 22.0656 24.9195C17.4528 24.9195 12.5945 26.0292 8.69088 28.5208L13.6141 36.2341C15.7323 34.8821 18.7817 34.0701 22.0656 34.0701C25.351 34.0701 28.3822 34.8827 30.4712 36.2259L35.4201 28.529ZM8.71085 28.5081C7.31813 29.3869 6.1758 30.4211 5.23465 31.5324L12.2176 37.4461C12.5999 36.9947 13.0458 36.5928 13.5941 36.2468L8.71085 28.5081ZM11.9117 31.2052C9.38066 28.75 7.8752 25.4536 7.8752 21.8816H-1.27542C-1.27542 28.1085 1.366 33.7241 5.54052 37.7734L11.9117 31.2052ZM7.8752 21.8816C7.8752 14.6896 14.0411 8.50625 22.0491 8.50625V-0.644362C9.36678 -0.644362 -1.27542 9.26455 -1.27542 21.8816H7.8752ZM22.0491 8.50625C30.057 8.50625 36.2229 14.6896 36.2229 21.8816H45.3736C45.3736 9.26455 34.7314 -0.644362 22.0491 -0.644362V8.50625ZM36.2229 21.8816C36.2229 25.4536 34.7175 28.75 32.1864 31.2052L38.5576 37.7734C42.7321 33.7241 45.3736 28.1085 45.3736 21.8816H36.2229ZM38.9123 31.591C37.9368 30.3994 36.7403 29.3619 35.3873 28.5081L30.504 36.2468C31.0921 36.6179 31.5279 37.0164 31.8317 37.3875L38.9123 31.591Z" fill="#B9B4C7" mask="url(#path-1-inside-1_43_354)"/>
<path d="M16.065 19.0934C16.065 16.0781 18.6516 13.4616 22.049 13.4616C25.4442 13.4616 28.0297 16.0747 28.0331 19.0875C28.0146 22.0495 25.5863 24.5775 22.2951 24.704H22.2917H22.1373H21.972C18.4602 24.5947 16.065 22.024 16.065 19.0934Z" fill="#B9B4C7" stroke="#B9B4C7" stroke-width="4.57531"/>
</svg>
